<svg width="36" height="36" viewBox="0 0 36 36" fill="none" xmlns="http://www.w3.org/2000/svg"><g><rect width="36" height="36" fill="rgb(171, 171, 173)"></rect><rect x="11" y="13" width="5" height="5" fill="#E01E5A"></rect><rect x="13.2903" y="19.0176" width="3.16901" height="7.08083" transform="rotate(-20.2064 13.2903 19.0176)" fill="#E01E5A"></rect><path d="M17 13L25 10V21.5L17 18V13Z" fill="white"></path><path d="M24.54 8.77979C25.16 8.77979 25.64 8.98979 25.98 9.40979C26.3267 9.82312 26.5 10.4031 26.5 11.1498V19.8498C26.5 20.5965 26.3267 21.1798 25.98 21.5998C25.64 22.0131 25.16 22.2198 24.54 22.2198C24.2733 22.2198 24.02 22.1765 23.78 22.0898C23.54 22.0031 23.32 21.8965 23.12 21.7698C22.92 21.6431 22.6567 21.4598 22.33 21.2198C21.9633 20.9331 21.6267 20.6998 21.32 20.5198C20.78 20.1998 20.2267 19.9498 19.66 19.7698C19.1 19.5898 18.5467 19.4998 18 19.4998H17.41L18.86 23.4798C18.9533 23.7465 19 24.0065 19 24.2598C19 24.7198 18.87 25.1398 18.61 25.5198C18.35 25.9065 18.0033 26.1831 17.57 26.3498C17.3367 26.4498 17.07 26.4998 16.77 26.4998C16.3033 26.4998 15.87 26.3665 15.47 26.0998C15.07 25.8331 14.79 25.4731 14.63 25.0198L12.62 19.4998H11.75C11.3433 19.4998 10.9667 19.3998 10.62 19.1998C10.28 18.9931 10.0067 18.7198 9.8 18.3798C9.6 18.0331 9.5 17.6565 9.5 17.2498V13.7498C9.5 13.3431 9.6 12.9698 9.8 12.6298C10.0067 12.2831 10.28 12.0098 10.62 11.8098C10.9667 11.6031 11.3433 11.4998 11.75 11.4998H18C18.5467 11.4998 19.1 11.4098 19.66 11.2298C20.2267 11.0498 20.78 10.7998 21.32 10.4798C21.6267 10.2998 21.9633 10.0665 22.33 9.77979C22.6567 9.53979 22.92 9.35645 23.12 9.22979C23.32 9.10312 23.54 8.99645 23.78 8.90979C24.02 8.82312 24.2733 8.77979 24.54 8.77979ZM25 11.0998C25 10.8465 24.96 10.6465 24.88 10.4998C24.8067 10.3531 24.6567 10.2798 24.43 10.2798C24.3033 10.2798 24.16 10.3298 24 10.4298C23.8467 10.5298 23.6067 10.6998 23.28 10.9398C22.7733 11.3265 22.3733 11.6065 22.08 11.7798C21.4133 12.1665 20.7333 12.4665 20.04 12.6798C19.3467 12.8931 18.6667 12.9998 18 12.9998H17.5V17.9998H18C18.6667 17.9998 19.3467 18.1065 20.04 18.3198C20.7333 18.5331 21.4133 18.8331 22.08 19.2198C22.3733 19.3931 22.7733 19.6731 23.28 20.0598C23.6067 20.2998 23.8467 20.4698 24 20.5698C24.16 20.6698 24.3033 20.7198 24.43 20.7198C24.6567 20.7198 24.8067 20.6465 24.88 20.4998C24.96 20.3531 25 20.1531 25 19.8998V11.0998ZM11 17.2498C11 17.4565 11.0733 17.6331 11.22 17.7798C11.3667 17.9265 11.5433 17.9998 11.75 17.9998H16V12.9998H11.75C11.5433 12.9998 11.3667 13.0731 11.22 13.2198C11.0733 13.3665 11 13.5431 11 13.7498V17.2498ZM15.81 19.4998H14.22L16.04 24.5098C16.0933 24.6565 16.1833 24.7765 16.31 24.8698C16.4433 24.9565 16.59 24.9998 16.75 24.9998C16.8633 24.9998 16.97 24.9765 17.07 24.9298C17.2033 24.8631 17.3067 24.7665 17.38 24.6398C17.4533 24.5131 17.49 24.3798 17.49 24.2398C17.49 24.1398 17.4767 24.0598 17.45 23.9998L15.81 19.4998Z" fill="#4A154B"></path></g></svg>