<svg width="128" height="24" viewBox="0 0 128 24" xmlns="http://www.w3.org/2000/svg" fill="#5BB381" class="p-media_file_thumbnail__audio_waves" style="max-width: 100%"><path d="M35.332 12.835C45.414 3.033 56.712-.931 69.013.18c10.028.906 20.409 5.12 31.341 12.083l.699.448c10.403 6.722 17.788 6.722 22.762 2.83a11.037 11.037 0 001.788-1.75c.21-.26.361-.472.454-.616l.075-.12 1.736.992c-.457.799-1.377 1.94-2.82 3.07-5.602 4.382-13.771 4.44-24.644-2.447l-.437-.28C75.97-1.114 55.09-3.134 37.265 13.752l-.539.518c-6.62 6.435-13.034 9.394-19.15 9.394-4.792 0-9.083-1.796-12.805-4.775a26.253 26.253 0 01-3.395-3.256l-.33-.386a17.729 17.729 0 01-.721-.917l-.152-.215 1.654-1.125.182.251.073.097c.224.295.492.625.803.982a24.266 24.266 0 003.135 3.007c3.394 2.716 7.266 4.337 11.555 4.337 5.441 0 11.238-2.62 17.357-8.444l.4-.384z"></path><path d="M53.692 9.412c5.018-6.938 9.75-8.065 15.17-4.68l.736.476c.98.642 1.508 1.037 3.146 2.502l3.63 3.295c4.11 3.748 6.77 5.685 9.835 6.792 3.884 1.403 7.82 1.002 12.223-1.606 8.52-5.045 15.346-8.195 20.668-9.805 3.518-1.064 5.986-1.35 7.568-1.163l.178.023c.165.024.294.051.39.077l.066.019-.604 1.907-.141-.024c-1.258-.184-3.489.05-6.878 1.076-4.89 1.479-11.156 4.33-18.95 8.861l-1.278.75c-4.913 2.91-9.47 3.374-13.921 1.766-3.384-1.222-6.21-3.28-10.504-7.196l-2.362-2.15c-2.64-2.396-3.107-2.762-4.272-3.523l-.364-.237c-4.532-2.937-8.109-2.218-12.496 3.711l-.22.3c-5.424 7.5-13.974 9.967-24.67 8.427-5.901-.85-12.182-2.88-18.546-5.729a103.916 103.916 0 01-8.377-4.216l-.865-.491c-.555-.32-1.065-.62-1.528-.901l-.867-.537 1.082-1.682.542.338.279.17c.676.41 1.458.867 2.336 1.36a101.93 101.93 0 008.215 4.134c6.208 2.78 12.32 4.754 18.013 5.574 9.869 1.421 17.588-.738 22.525-7.292l.24-.326z" opacity=".3"></path><path d="M28.549 5.575c4.913-2.91 9.47-3.373 13.921-1.766 3.384 1.223 6.21 3.28 10.504 7.196l3.68 3.34c1.624 1.447 2.072 1.76 3.13 2.448l.188.122c4.532 2.937 8.109 2.218 12.496-3.71l.22-.302c5.424-7.498 13.974-9.966 24.67-8.425 5.901.85 12.182 2.879 18.546 5.728a103.916 103.916 0 018.377 4.216 84.92 84.92 0 012.393 1.393l.867.536-1.082 1.682-.675-.42-.146-.088a82.93 82.93 0 00-2.336-1.359 101.93 101.93 0 00-8.215-4.135c-6.208-2.78-12.32-4.754-18.013-5.574-9.869-1.42-17.588.738-22.525 7.293l-.24.326c-5.02 6.937-9.752 8.064-15.17 4.68l-1.076-.702c-1.002-.675-1.673-1.239-4.216-3.549l-2.22-2.022c-4.11-3.748-6.771-5.685-9.836-6.793-3.884-1.402-7.82-1.002-12.223 1.606l-1.298.762C20.352 12.66 13.95 15.574 8.9 17.1c-3.653 1.105-6.174 1.37-7.746 1.14l-.221-.038a2.644 2.644 0 01-.17-.039l-.065-.019.604-1.906.141.023c1.258.184 3.489-.05 6.878-1.075 4.89-1.48 11.156-4.33 18.95-8.862l1.278-.75z" opacity=".3"></path></svg>