<svg xmlns="http://www.w3.org/2000/svg" fill="none" viewBox="0 0 42 37">
    <path d="M.571 36.572H19c10.177 0 18.429-8.188 18.429-18.286C37.429 8.187 29.177 0 19 0 8.822 0 .571 8.187.571 18.286V36.57z" fill="#44BEDF"/>
    <path d="M.571 34.429l3.536-5.31L.57 27.45v6.978z" fill="#FDD4BE"/>
    <path d="M39.893 8.322c0 .04-.006.078-.016.114l.004.002-.859 3.488.172.057 1.145-3.202h.002a.375.375 0 01.742.074c-.331 1.084-.816 2.51-1.144 3.528l.114.058 1.155-2.307c.085-.165.183-.282.357-.282a.366.366 0 01.3.576l-1.182 2.584-.515 1.659-.86 1.772-2.404 8.978a2.87 2.87 0 01-2.75 2.116l-3.779.171.745-5.546 2.52.571 2.69-7.09-.514-1.373-.974-2.744h.344c.229 0 .515.114.63.343l.916 1.2.916-4.403.006.001a.344.344 0 01.68.069c-.139.998-.307 2.048-.457 3.018h.172l1.03-3.545a.415.415 0 01.814.113z" fill="#FDD4BE"/>
    <path d="M18.636 15.756l2.806-3.145-.057-6.175h-9.506v13.61h6.757v-4.29z" fill="#FDD4BE"/>
    <path d="M2.946 19.518c-.401.458-.745.915-.974 1.43L.572 23.8v3.672l4.091 1.938 1.776-2.516v9.676h13.063c2.449 0 5.032-.834 5.032-.834v-8.5l5.784.916.86-6.519-2.807-2.23a13.787 13.787 0 00-2.749-1.716c-.057 0-.171-.057-.286-.114-.744-.286-1.489-.572-2.233-.743l-4.41-1.087v.172a3.468 3.468 0 01-3.493 3.488c-1.832-.057-3.321-1.659-3.321-3.488v-.172l-4.524 1.201c-1.66.457-3.207 1.315-4.41 2.573z" fill="black"/>
    <path d="M20.297 7.294c1.676 0 3.035-1.306 3.035-2.917 0-1.61-1.359-2.916-3.035-2.916-1.677 0-3.035 1.306-3.035 2.916 0 1.61 1.358 2.917 3.035 2.917z" fill="#F1606A"/>
    <path d="M11.879 12.554l-1.89-3.43c-.687-1.83-.916-5.09 1.775-6.634.516-.286 1.088-.457 1.66-.572l2.005-.343c.401-.057.802-.114 1.203-.114a4.982 4.982 0 014.982 4.975H16.23c-.401 0-.745.343-.745.743v5.604c0 .458.401.858.86.858a.88.88 0 00.858-.858 1.27 1.27 0 011.26-1.258h1.775c.63 0 1.203.515 1.203 1.201v2.001a2.052 2.052 0 01-2.062 2.059H16.69c-1.718 0-3.15-1.43-3.15-3.145V9.638c0-.457-.343-.8-.801-.8a.782.782 0 00-.802.8v2.916h-.057z" fill="#F1606A"/>
    <path d="M18.75 14.098h1.146c.515 0 .973-.457.973-.972 0-.514-.458-.972-.973-.972H18.75c-.516 0-.974.458-.974.972 0 .572.458.973.974.973z" fill="#FDD4BE"/>
    <path d="M21.556 6.436s-.057.858-1.202.858-2.119-.858-3.15-.858l1.776-1.601 2.576 1.601z" fill="#F1606A"/>
    <path d="M20.125 7.98l.458 2.172c.057.23-.114.458-.344.458h-.687" stroke="#B3806A" stroke-width=".1" stroke-miterlimit="10" stroke-linecap="round"/>
    <path d="M18.521 13.126c.573.229 1.203.229 1.718 0" stroke="#B3806A" stroke-width=".1" stroke-miterlimit="10" stroke-linecap="round"/>
</svg>